<?xml version="1.0" encoding="UTF-8" standalone="no"?>
<svg
   viewBox="0 0 32 32"
   version="1.1"
   id="svg1"
   sodipodi:docname="call-start_dark.svg"
   inkscape:export-filename="call-start_22_dark.png"
   inkscape:export-xdpi="66"
   inkscape:export-ydpi="66"
   inkscape:version="1.3.2 (091e20ef0f, 2023-11-25, custom)"
   xmlns:inkscape="http://www.inkscape.org/namespaces/inkscape"
   xmlns:sodipodi="http://sodipodi.sourceforge.net/DTD/sodipodi-0.dtd"
   xmlns="http://www.w3.org/2000/svg"
   xmlns:svg="http://www.w3.org/2000/svg">
  <sodipodi:namedview
     id="namedview1"
     pagecolor="#ffffff"
     bordercolor="#999999"
     borderopacity="1"
     inkscape:showpageshadow="0"
     inkscape:pageopacity="0"
     inkscape:pagecheckerboard="0"
     inkscape:deskcolor="#d1d1d1"
     inkscape:zoom="10.08732"
     inkscape:cx="22.751335"
     inkscape:cy="22.206096"
     inkscape:window-width="1272"
     inkscape:window-height="734"
     inkscape:window-x="49"
     inkscape:window-y="227"
     inkscape:window-maximized="0"
     inkscape:current-layer="svg1" />
  <defs
     id="defs3051">
    <style
       type="text/css"
       id="current-color-scheme">
      .ColorScheme-Text {
        color:#232629;
      }
      </style>
    <filter
       style="color-interpolation-filters:sRGB;"
       inkscape:label="Invert"
       id="filter4"
       x="0"
       y="0"
       width="1"
       height="1">
      <feColorMatrix
         values="-1 0 0 0 1 0 -1 0 0 1 0 0 -1 0 1 -0.21 -0.72 -0.07 2 0 "
         result="color2"
         id="feColorMatrix4" />
    </filter>
  </defs>
  <path
     style="fill:currentColor;fill-opacity:1;stroke:none;filter:url(#filter4)"
     d="m15.861 24.946c2.724 2.724 6.539 3.608 10.01 2.722l1.661-1.661c0 0 1.061-1.061 0-2.121l-4.561-4.561c-1.061-1.061-2.121 0-2.121 0l-.53.53c-.881.881-2.301.881-3.182 0l-4.989-4.989c-.881-.881-.881-2.301 0-3.182l.53-.53c0 0 1.061-1.061 0-2.121l-4.561-4.561c-1.061-1.061-2.121 0-2.121 0l-1.661 1.661c-.886 3.467-.002 7.282 2.722 10.01z"
     class="ColorScheme-Text"
     id="path1"
     inkscape:export-filename="../../../../Programmieren/FritzCallIndicator/FritzCallIndicator/data/icons/call-start_22_dark.png"
     inkscape:export-xdpi="88.003326"
     inkscape:export-ydpi="88.003326" />
</svg>
